<mxfile host="app.diagrams.net" modified="2024-03-11T06:47:09.946Z" agent="Mozilla/5.0 (Windows NT 10.0; Win64; x64) AppleWebKit/537.36 (KHTML, like Gecko) Chrome/122.0.0.0 Safari/537.36" etag="tZVtyJwqrGANWhK0iOyp" version="24.0.4" type="device">
  <diagram name="Page-1" id="lU-Z1fP3G4SLbPCsMVKM">
    <mxGraphModel dx="864" dy="498" grid="1" gridSize="10" guides="1" tooltips="1" connect="1" arrows="1" fold="1" page="1" pageScale="1" pageWidth="827" pageHeight="1169" math="0" shadow="0">
      <root>
        <mxCell id="0" />
        <mxCell id="1" parent="0" />
        <mxCell id="C3AEr2PHJ48svtHJTSa6-7" style="edgeStyle=orthogonalEdgeStyle;rounded=0;orthogonalLoop=1;jettySize=auto;html=1;exitX=0.5;exitY=1;exitDx=0;exitDy=0;" edge="1" parent="1" source="C3AEr2PHJ48svtHJTSa6-1" target="C3AEr2PHJ48svtHJTSa6-3">
          <mxGeometry relative="1" as="geometry">
            <Array as="points">
              <mxPoint x="400" y="110" />
              <mxPoint x="400" y="110" />
            </Array>
          </mxGeometry>
        </mxCell>
        <mxCell id="C3AEr2PHJ48svtHJTSa6-1" value="&lt;div&gt;&lt;br&gt;&lt;/div&gt;START" style="ellipse;whiteSpace=wrap;html=1;" vertex="1" parent="1">
          <mxGeometry x="340" y="10" width="120" height="70" as="geometry" />
        </mxCell>
        <mxCell id="C3AEr2PHJ48svtHJTSa6-2" value="&lt;div&gt;&lt;br&gt;&lt;/div&gt;STOP&lt;div&gt;&lt;br&gt;&lt;/div&gt;" style="ellipse;whiteSpace=wrap;html=1;" vertex="1" parent="1">
          <mxGeometry x="350" y="520" width="120" height="80" as="geometry" />
        </mxCell>
        <mxCell id="C3AEr2PHJ48svtHJTSa6-11" style="edgeStyle=orthogonalEdgeStyle;rounded=0;orthogonalLoop=1;jettySize=auto;html=1;exitX=0.5;exitY=1;exitDx=0;exitDy=0;entryX=0.5;entryY=0;entryDx=0;entryDy=0;" edge="1" parent="1" source="C3AEr2PHJ48svtHJTSa6-3" target="C3AEr2PHJ48svtHJTSa6-5">
          <mxGeometry relative="1" as="geometry" />
        </mxCell>
        <mxCell id="C3AEr2PHJ48svtHJTSa6-3" value="INPUT N1, N2" style="shape=parallelogram;perimeter=parallelogramPerimeter;whiteSpace=wrap;html=1;fixedSize=1;" vertex="1" parent="1">
          <mxGeometry x="350" y="120" width="120" height="60" as="geometry" />
        </mxCell>
        <mxCell id="C3AEr2PHJ48svtHJTSa6-13" style="edgeStyle=orthogonalEdgeStyle;rounded=0;orthogonalLoop=1;jettySize=auto;html=1;exitX=0.5;exitY=1;exitDx=0;exitDy=0;entryX=0.5;entryY=0;entryDx=0;entryDy=0;" edge="1" parent="1" source="C3AEr2PHJ48svtHJTSa6-4" target="C3AEr2PHJ48svtHJTSa6-6">
          <mxGeometry relative="1" as="geometry" />
        </mxCell>
        <mxCell id="C3AEr2PHJ48svtHJTSa6-4" value="AVG&amp;lt;-(AVG)/2" style="rounded=0;whiteSpace=wrap;html=1;" vertex="1" parent="1">
          <mxGeometry x="350" y="310" width="120" height="60" as="geometry" />
        </mxCell>
        <mxCell id="C3AEr2PHJ48svtHJTSa6-12" style="edgeStyle=orthogonalEdgeStyle;rounded=0;orthogonalLoop=1;jettySize=auto;html=1;exitX=0.5;exitY=1;exitDx=0;exitDy=0;entryX=0.5;entryY=0;entryDx=0;entryDy=0;" edge="1" parent="1" source="C3AEr2PHJ48svtHJTSa6-5" target="C3AEr2PHJ48svtHJTSa6-4">
          <mxGeometry relative="1" as="geometry" />
        </mxCell>
        <mxCell id="C3AEr2PHJ48svtHJTSa6-5" value="AVG&amp;lt;-(N1+N2)" style="rounded=0;whiteSpace=wrap;html=1;" vertex="1" parent="1">
          <mxGeometry x="350" y="210" width="120" height="60" as="geometry" />
        </mxCell>
        <mxCell id="C3AEr2PHJ48svtHJTSa6-14" style="edgeStyle=orthogonalEdgeStyle;rounded=0;orthogonalLoop=1;jettySize=auto;html=1;entryX=0.5;entryY=0;entryDx=0;entryDy=0;" edge="1" parent="1" source="C3AEr2PHJ48svtHJTSa6-6" target="C3AEr2PHJ48svtHJTSa6-2">
          <mxGeometry relative="1" as="geometry" />
        </mxCell>
        <mxCell id="C3AEr2PHJ48svtHJTSa6-6" value="PRINT AVG" style="shape=parallelogram;perimeter=parallelogramPerimeter;whiteSpace=wrap;html=1;fixedSize=1;" vertex="1" parent="1">
          <mxGeometry x="350" y="410" width="120" height="60" as="geometry" />
        </mxCell>
      </root>
    </mxGraphModel>
  </diagram>
</mxfile>
